<svg width="30" height="30" viewBox="40 50 20 20" xmlns="http://www.w3.org/2000/svg">
  <rect width="30" height="30" fill="white"/>
  <g transform="translate(-50,-50)">
    <path fill="none" d="shuzi_c_1
m51.71225,56.72592c0,0.80306 0.32822,1.2029 0.98409,1.2029l1.85934,0l0,0.98408l-8.96846,0l0,-0.98408l1.74994,0c0.65642,-0.07163 0.98409,-0.43763 0.98409,-1.0935l0,-12.24893c-1.16737,0.65644 -2.26085,1.13125 -3.28105,1.42172l-0.43762,-0.76528c2.18699,-1.09351 4.04689,-2.47802 5.57743,-4.15573l1.53112,0l0,15.63882l0.00111,0l0.00001,0z
shuzi_c_2
m44.23404,57.96309c0.29169,-0.36531 0.73117,-0.84104 1.31789,-1.42776c4.61288,-4.68482 6.66194,-7.8705 6.15051,-9.55537c-0.07361,-2.34241 -1.0262,-3.55098 -2.85551,-3.6246c-1.68486,0.14779 -2.74564,1.20857 -3.18512,3.18512l-1.09814,0c0.58504,-3.51473 2.45228,-5.34404 5.60115,-5.49184c3.07526,0.21974 4.72275,1.86723 4.9425,4.94249c0.14612,1.90516 -1.13607,3.99158 -3.84435,6.26038c-1.61124,1.46568 -2.85551,2.70996 -3.73447,3.73448l5.27211,0c1.24426,0.07362 1.93918,-0.6213 2.08697,-2.08698l0.8784,0l-0.54879,5.05236l-10.98313,0l0,-0.98827z
xiaojiexian_weibu
yiyin_shuzi_1
m52.52389,54.48409l-5.00169,0l0,-0.96419l1.95918,0l0,-6.66805l-2.00528,0.59245l0,-1.02227l3.10012,-0.90612l0,8.00399l1.94766,0l0,0.96419l0,0z
yiyinxian_qian
m50.16008,57.08764c0,0 -0.818,4.79115 4.44059,5.49229
qy0_0
custom" stroke="#1b1b1b
#1b1b1b"/>
  </g>
</svg>
